<svg width="1356" height="1356" viewBox="0 0 1356 1356" fill="none" xmlns="http://www.w3.org/2000/svg">
<path d="M678 0C1052.45 0 1356 303.551 1356 678C1356 1052.45 1052.45 1356 678 1356C303.551 1356 0 1052.45 0 678C6.59762e-05 303.551 303.551 6.60083e-05 678 0ZM359.394 346.847L354.309 544.145H422.447L429.566 481.091C431.6 466.175 435.33 453.292 440.754 442.444C446.178 431.596 454.653 423.46 466.179 418.036C477.705 411.934 493.638 408.884 513.978 408.884H595.338V952.979C595.338 971.962 592.965 986.2 588.219 995.692C584.151 1005.18 578.049 1011.63 569.913 1015.02C562.455 1017.73 553.641 1019.08 543.471 1019.08H500.757V1072.98H851.622V1019.08H808.908C799.416 1019.08 790.602 1017.73 782.466 1015.02C774.33 1011.63 767.889 1005.18 763.143 995.692C759.075 986.2 757.041 971.962 757.041 952.979V408.884H838.4C858.74 408.884 874.674 411.934 886.2 418.036C897.726 423.46 906.201 431.596 911.625 442.444C917.727 453.292 921.456 466.175 922.812 481.091L929.931 544.145H998.069L992.984 346.847H359.394Z" fill="black"/>
</svg>
